:SAMPLES-PER-SECOND 30
:FULLY-SPECIFIED
:DEGREES
739
root  2.20754 35.5342 3.96738 -58.0062 -87.8502 58.7212
RightUpLeg  -40.2127 0.277913 -0.501412
RightLeg  68.3966 -1.8486 -5.91918
RightFoot  1.9601 -1.19089 10.1955
RightToes  6.35927e-011 1.30204e-014 -6.03759e-014
Spine  43.158 -1.79961 -1.53894
Spine1  21.9941 -0.312052 -5.48029
HEad  -26.9734 4.71 -0.281785
LeftShoulder1  1.42006 -3.57964 -13.03
LeftArm  -15.316 39.4095 -31.2895
LeftForeArm  35.4173 -71.2446 -31.7288
LeftHand  0.748152 6.92013 50.348
RightShoulder  1.59968 2.93207 18.3741
RightArm  -16.0431 -41.1187 35.2693
RightForeArm  55.9949 77.4792 56.328
RightHand  -1.28545 -2.03542 -43.8492
LeftUpLeg  -38.3713 -12.6489 -1.49276
LeftLeg  54.9554 12.824 19.2795
LeftFoot  -5.93226 0.578261 -11.3268
LeftToes  7.40077e-010 7.2695e-011 -6.03601e-011
740
root  2.37451 35.3882 3.74191 -51.55 -88.0409 51.5481
RightUpLeg  -35.3352 0.0976433 0.853439
RightLeg  64.7522 -2.73662 -6.89435
RightFoot  -9.03182 -0.25397 8.85185
RightToes  6.35927e-011 1.30204e-014 -6.03759e-014
Spine  41.8783 -1.17554 0.156566
Spine1  22.5861 0.392982 -4.21278
HEad  -28.9428 2.80735 -0.400857
LeftShoulder1  1.34083 -3.98281 -10.6887
LeftArm  4.96686 39.7362 -29.4913
LeftForeArm  102.022 -80.3887 -70.5986
LeftHand  -1.00077 2.67077 44.2708
RightShoulder  1.42092 2.47118 17.1954
RightArm  -1.60601 -44.4361 32.9637
RightForeArm  160.372 77.7177 132.535
RightHand  -1.91971 0.463685 -37.2833
LeftUpLeg  -38.8388 -10.1796 -0.609357
LeftLeg  55.7862 9.23526 14.7277
LeftFoot  -5.44863 0.736758 -13.8329
LeftToes  7.40077e-010 7.2695e-011 -6.03601e-011
741
root  2.43274 35.1577 3.55948 -62.4748 -88.1187 61.8572
RightUpLeg  -32.5891 2.82111 1.75844
RightLeg  62.449 -5.10679 -11.0739
RightFoot  -15.7797 0.155573 6.50497
RightToes  6.35927e-011 1.30204e-014 -6.03759e-014
Spine  39.7456 -0.47973 1.00336
Spine1  23.1804 1.43935 -3.88935
HEad  -30.4197 1.62332 -0.921609
LeftShoulder1  1.34658 -4.78164 -8.79935
LeftArm  17.9944 39.6412 -28.9361
LeftForeArm  -151.425 -78.6285 -141.349
LeftHand  -2.63097 -2.73475 35.6935
RightShoulder  1.2199 1.95942 15.6392
RightArm  9.76571 -46.889 32.2285
RightForeArm  -134.038 66.807 163.275
RightHand  -2.42039 4.19767 -28.5628
LeftUpLeg  -39.0622 -8.6207 -0.078954
LeftLeg  59.414 5.78251 11.0211
LeftFoot  -9.72009 0.285586 -15.7056
LeftToes  7.40077e-010 7.2695e-011 -6.03601e-011
742
root  2.39166 35.0693 3.4484 -71.8668 -87.5325 70.9811
RightUpLeg  -31.5162 6.50939 1.84653
RightLeg  61.9679 -7.45709 -15.3804
RightFoot  -17.0925 0.16912 5.62158
RightToes  6.35927e-011 1.30204e-014 -6.03759e-014
Spine  37.8877 -0.469247 0.278309
Spine1  22.64 1.24053 -3.99632
HEad  -31.8216 2.22429 -1.77931
LeftShoulder1  1.42984 -5.04591 -9.36374
LeftArm  14.17 38.6418 -32.4018
LeftForeArm  -145.301 -77.9702 -141.707
LeftHand  -2.69122 -1.42804 45.8151
RightShoulder  1.17896 1.9016 15.0559
RightArm  9.62926 -45.6701 37.2485
RightForeArm  -130.296 64.4218 164.507
RightHand  -4.39969 7.60521 -37.847
LeftUpLeg  -38.5354 -7.63978 -0.946245
LeftLeg  65.7534 3.74995 9.82397
LeftFoot  -14.204 -0.312515 -15.8488
LeftToes  7.40077e-010 7.2695e-011 -6.03601e-011
743
root  2.27683 35.1663 3.39443 -70.3354 -86.7409 69.8705
RightUpLeg  -31.6881 8.77657 1.0958
RightLeg  62.216 -7.89808 -16.3589
RightFoot  -16.3358 0.184592 6.77975
RightToes  6.35927e-011 1.30204e-014 -6.03759e-014
Spine  36.3894 -1.00953 -0.957251
Spine1  20.5525 -0.0359228 -3.72165
HEad  -33.2107 3.44243 -2.83352
LeftShoulder1  1.39102 -3.88353 -11.7234
LeftArm  -3.28511 36.8142 -39.4514
LeftForeArm  133.783 -81.8378 -85.5532
LeftHand  -0.350972 4.81356 55.541
RightShoulder  1.20605 1.81501 16.0222
RightArm  -1.76759 -42.7445 46.2302
RightForeArm  -169.116 71.4861 153.501
RightHand  -5.80267 7.62384 -49.2344
LeftUpLeg  -36.357 -5.03623 -2.82375
LeftLeg  70.6283 2.67422 9.37251
LeftFoot  -14.2013 -0.316377 -16.0865
LeftToes  7.40077e-010 7.2695e-011 -6.03601e-011
744
root  2.1728 35.4323 3.36211 -72.7003 -86.1198 73.1769
RightUpLeg  -33.4278 8.46832 -0.241451
RightLeg  62.9858 -6.76524 -14.6786
RightFoot  -13.6585 0.0793035 8.65112
RightToes  6.35927e-011 1.30204e-014 -6.03759e-014
Spine  35.2461 -1.23852 -2.27435
Spine1  16.6004 -1.07159 -3.07675
HEad  -33.0745 4.32407 -3.95185
LeftShoulder1  1.26113 -2.57656 -13.7595
LeftArm  -19.0009 34.9341 -46.1022
LeftForeArm  50.1212 -74.0921 -36.1565
LeftHand  0.225646 5.88891 44.2411
RightShoulder  1.1511 1.33391 17.2382
RightArm  -15.4828 -40.9061 53.4087
RightForeArm  111.526 79.1268 109.794
RightHand  -4.62892 5.35043 -47.2787
LeftUpLeg  -31.9099 -0.534378 -4.38714
LeftLeg  69.138 2.35053 7.76821
LeftFoot  -12.8392 -0.146664 -16.7414
LeftToes  7.40077e-010 7.2695e-011 -6.03601e-011
745
root  2.04288 35.665 3.33157 -77.5336 -85.6615 78.3419
RightUpLeg  -36.5795 5.52504 -1.41079
RightLeg  65.7218 -4.53452 -11.4566
RightFoot  -6.42273 -0.477032 9.95293
RightToes  6.35927e-011 1.30204e-014 -6.03759e-014
Spine  34.9869 -0.897965 -4.14971
Spine1  11.0902 -1.69672 -1.91773
HEad  -31.2555 5.61409 -4.68719
LeftShoulder1  1.42859 -2.96414 -15.2158
LeftArm  -20.8254 32.1907 -49.0723
LeftForeArm  11.9637 -59.7932 -18.7011
LeftHand  0.185389 5.96553 33.5715
RightShoulder  1.06323 0.937016 17.4088
RightArm  -21.5599 -38.9758 54.977
RightForeArm  10.3225 72.3758 40.4035
RightHand  -2.84685 1.99286 -43.2098
LeftUpLeg  -25.816 3.17232 -5.21178
LeftLeg  62.4979 2.37219 5.61642
LeftFoot  -16.4631 -0.589828 -15.5966
LeftToes  7.40077e-010 7.2695e-011 -6.03601e-011
746
root  1.84329 35.5241 3.27808 -72.1703 -85.2961 71.8215
RightUpLeg  -40.3344 1.4353 -2.22691
RightLeg  71.2596 -1.65497 -6.16727
RightFoot  4.58066 -1.43318 10.5033
RightToes  6.35927e-011 1.30204e-014 -6.03759e-014
Spine  35.4272 -0.499702 -6.70676
Spine1  6.42621 -2.77442 0.646713
HEad  -30.5648 7.73147 -4.67888
LeftShoulder1  1.86173 -4.28567 -17.2551
LeftArm  -12.3432 30.2608 -47.9849
LeftForeArm  -17.8709 -44.9821 -11.9925
LeftHand  0.394496 7.06239 27.3916
RightShoulder  1.04807 0.935559 17.0472
RightArm  -22.4397 -36.1199 50.9559
RightForeArm  -51.0995 56.3474 19.4132
RightHand  -1.39329 -1.81805 -43.624
LeftUpLeg  -20.1761 2.82399 -5.66564
LeftLeg  57.0831 2.93846 5.43065
LeftFoot  -24.4451 -1.45343 -13.8378
LeftToes  7.40077e-010 7.2695e-011 -6.03601e-011
747
root  1.55777 35.0568 3.15338 -55.9532 -84.5364 53.265
RightUpLeg  -42.9242 -1.78558 -4.0033
RightLeg  77.6426 0.225774 -0.394005
RightFoot  11.9751 -1.96345 9.90282
RightToes  6.35927e-011 1.30204e-014 -6.03759e-014
Spine  34.8823 -0.280288 -9.58456
Spine1  4.7642 -4.26811 4.14216
HEad  -32.785 9.29456 -4.35399
LeftShoulder1  1.95922 -4.15581 -19.0819
LeftArm  -10.6705 30.3716 -48.4721
LeftForeArm  -40.8664 -40.1497 -11.397
LeftHand  0.594721 8.45002 22.2441
RightShoulder  1.02121 0.809651 17.1295
RightArm  -29.4072 -35.5111 46.7401
RightForeArm  -85.1068 49.3844 15.4164
RightHand  -0.612054 -3.85207 -44.6746
LeftUpLeg  -16.4474 -0.984258 -6.42768
LeftLeg  56.7819 4.88497 8.61257
LeftFoot  -30.4761 -2.04382 -13.1434
LeftToes  7.40077e-010 7.2695e-011 -6.03601e-011
748
root  1.1953 34.6868 2.98114 -38.0145 -83.9655 33.0029
RightUpLeg  -43.2449 -3.40806 -6.82344
RightLeg  81.419 0.293464 -0.174671
RightFoot  10.7773 -1.56346 8.31477
RightToes  6.35927e-011 1.30204e-014 -6.03759e-014
Spine  32.9465 -0.221212 -10.4321
Spine1  5.27333 -5.08633 6.7245
HEad  -35.2488 8.78 -4.25054
LeftShoulder1  1.51637 -2.43144 -18.9722
LeftArm  -23.754 30.6228 -52.808
LeftForeArm  -56.1016 -43.2158 -12.9869
LeftHand  1.31211 11.086 26.325
RightShoulder  0.87178 0.150172 17.3379
RightArm  -43.3778 -39.4933 45.7459
RightForeArm  -79.324 58.5003 22.3073
RightHand  -0.761684 -3.52778 -45.9869
LeftUpLeg  -13.7977 -4.53083 -6.3961
LeftLeg  58.6384 6.973 12.7386
LeftFoot  -32.4584 -2.23987 -13.0195
LeftToes  7.40077e-010 7.2695e-011 -6.03601e-011
749
root  0.767864 34.6267 2.81441 -19.0167 -84.0551 12.4294
RightUpLeg  -41.4319 -4.00523 -9.82175
RightLeg  79.5783 -1.0578 -8.02357
RightFoot  6.67462 -0.855434 5.68978
RightToes  6.35927e-011 1.30204e-014 -6.03759e-014
Spine  30.6561 -0.334596 -8.40487
Spine1  4.60306 -4.61251 7.06453
HEad  -34.1897 6.66974 -4.15637
LeftShoulder1  1.14158 -1.18332 -17.7485
LeftArm  -35.6937 30.6154 -56.2916
LeftForeArm  -65.9489 -51.0136 -16.7115
LeftHand  2.46832 12.4905 38.5744
RightShoulder  0.695939 -0.547811 17.0272
RightArm  -52.1758 -44.9742 45.4243
RightForeArm  -34.7627 73.5453 49.7403
RightHand  -1.22331 -2.51234 -46.8361
LeftUpLeg  -11.115 -6.57196 -4.84013
LeftLeg  58.7921 8.14513 14.785
LeftFoot  -33.394 -2.37064 -13.1428
LeftToes  7.40077e-010 7.2695e-011 -6.03601e-011
750
root  0.264327 34.7438 2.62602 -2.36426 -84.438 -4.89447
RightUpLeg  -38.1605 -3.92793 -12.5192
RightLeg  72.146 -3.90525 -14.5219
RightFoot  5.92982 -0.405305 2.92583
RightToes  6.35927e-011 1.30204e-014 -6.03759e-014
Spine  28.7396 -0.412289 -5.68975
Spine1  1.46734 -3.41777 5.76975
HEad  -29.8006 4.8512 -3.68474
LeftShoulder1  1.13931 -1.31453 -16.9559
LeftArm  -37.6947 31.2275 -54.3737
LeftForeArm  -63.1879 -60.3714 -23.5612
LeftHand  2.64844 11.7779 44.7426
RightShoulder  0.646091 -0.677494 16.301
RightArm  -50.8426 -47.4872 40.053
RightForeArm  51.2924 76.4562 114.542
RightHand  -2.41514 0.0210796 -49.2605
LeftUpLeg  -9.12167 -7.46776 -2.78132
LeftLeg  58.1027 8.00595 14.1774
LeftFoot  -34.1735 -2.67271 -14.204
LeftToes  7.40077e-010 7.2695e-011 -6.03601e-011
